HIERARCHY
ROOT Hips
{
	OFFSET	0.00	0.00	0.00
	CHANNELS 6 Xposition Yposition Zposition Zrotation Xrotation Yrotation
	JOINT LeftUpLeg
	{
		OFFSET	 0.126116	-0.065224	 0.014019
		CHANNELS 3 Zrotation Xrotation Yrotation
		JOINT LeftLeg
		{
			OFFSET	 0.000000	 0.569914	 0.000000
			CHANNELS 3 Zrotation Xrotation Yrotation
			JOINT LeftFoot
			{
				OFFSET	 0.000000	 0.544423	 0.000000
				CHANNELS 3 Zrotation Xrotation Yrotation
				JOINT LeftToeBase
				{
					OFFSET	 0.000000	 0.207117	 0.000000
					CHANNELS 3 Zrotation Xrotation Yrotation
					End Site
					{
						OFFSET	 0.000000	 0.207117	 0.000000
					}
				}
			}
		}
	}
	JOINT RightUpLeg
	{
		OFFSET	-0.124023	-0.065224	 0.008373
		CHANNELS 3 Zrotation Xrotation Yrotation
		JOINT RightLeg
		{
			OFFSET	 0.000000	 0.570047	 0.000000
			CHANNELS 3 Zrotation Xrotation Yrotation
			JOINT RightFoot
			{
				OFFSET	 0.000000	 0.544354	 0.000000
				CHANNELS 3 Zrotation Xrotation Yrotation
				JOINT RightToeBase
				{
					OFFSET	 0.000000	 0.207540	 0.000000
					CHANNELS 3 Zrotation Xrotation Yrotation
					End Site
					{
						OFFSET	 0.000000	 0.207540	 0.000000
					}
				}
			}
		}
	}
	JOINT Spine
	{
		OFFSET	 0.000184	 0.117403	 0.007763
		CHANNELS 3 Zrotation Xrotation Yrotation
		JOINT Spine1
		{
			OFFSET	 0.000000	 0.137269	 0.000000
			CHANNELS 3 Zrotation Xrotation Yrotation
			JOINT Spine2
			{
				OFFSET	 0.000000	 0.156879	 0.000000
				CHANNELS 3 Zrotation Xrotation Yrotation
				JOINT LeftShoulder
				{
					OFFSET	 0.080501	 0.160143	 0.002496
					CHANNELS 3 Zrotation Xrotation Yrotation
					JOINT LeftArm
					{
						OFFSET	 0.000000	 0.164363	 0.000000
						CHANNELS 3 Zrotation Xrotation Yrotation
						JOINT LeftForeArm
						{
							OFFSET	 0.000000	 0.364576	 0.000000
							CHANNELS 3 Zrotation Xrotation Yrotation
							JOINT LeftHand
							{
								OFFSET	 0.000000	 0.360812	 0.000000
								CHANNELS 3 Zrotation Xrotation Yrotation
								JOINT LeftHandIndex1
								{
									OFFSET	 0.000000	 0.086006	 0.000000
									CHANNELS 3 Zrotation Xrotation Yrotation
									JOINT LeftHandIndex2
									{
										OFFSET	 0.000000	 0.047237	 0.000000
										CHANNELS 3 Zrotation Xrotation Yrotation
										JOINT LeftHandIndex3
										{
											OFFSET	-0.004284	 0.038165	 0.000551
											CHANNELS 3 Zrotation Xrotation Yrotation
											End Site
											{
												OFFSET	-0.004284	 0.038165	 0.000551
											}
										}
									}
								}
							}
						}
					}
				}
				JOINT Neck
				{
					OFFSET	 0.000000	 0.176489	 0.000000
					CHANNELS 3 Zrotation Xrotation Yrotation
					JOINT Head
					{
						OFFSET	 0.000000	 0.077941	 0.001747
						CHANNELS 3 Zrotation Xrotation Yrotation
						End Site
						{
							OFFSET	 0.000000	 0.077941	 0.001747
						}
					}
				}
				JOINT RightShoulder
				{
					OFFSET	-0.080363	 0.159706	-0.000306
					CHANNELS 3 Zrotation Xrotation Yrotation
					JOINT RightArm
					{
						OFFSET	 0.000000	 0.164196	 0.000000
						CHANNELS 3 Zrotation Xrotation Yrotation
						JOINT RightForeArm
						{
							OFFSET	 0.000000	 0.365611	 0.000000
							CHANNELS 3 Zrotation Xrotation Yrotation
							JOINT RightHand
							{
								OFFSET	 0.000000	 0.360648	 0.000000
								CHANNELS 3 Zrotation Xrotation Yrotation
								JOINT RightHandIndex1
								{
									OFFSET	 0.000000	 0.069977	 0.000000
									CHANNELS 3 Zrotation Xrotation Yrotation
									JOINT RightHandIndex2
									{
										OFFSET	 0.000000	 0.052305	 0.000000
										CHANNELS 3 Zrotation Xrotation Yrotation
										JOINT RightHandIndex3
										{
											OFFSET	 0.009002	 0.042196	 0.000782
											CHANNELS 3 Zrotation Xrotation Yrotation
											End Site
											{
												OFFSET	 0.009002	 0.042196	 0.000782
											}
										}
									}
								}
							}
						}
					}
				}
			}
		}
	}
}
MOTION
Frames:    8
Frame Time: 0.03333334
 0.436244	 1.273761	 0.406576	 0.673122	-2.346485	-177.251200	-179.125400	 6.989212	-11.921970	 3.578575	-13.222000	 6.001758	 5.401918	 70.001170	-1.649585	 1.292262	 28.425850	-2.713146	 176.811000	 7.534586	 13.541460	-2.024374	-10.413830	 0.852569	 0.634383	 66.128920	-5.829950	-1.288183	 28.361890	 2.710176	-1.046350	 5.065212	-12.292880	 3.582850	-1.952422	-6.180099	-2.303580	 2.207900	 18.349190	-117.459200	-0.779899	 89.958460	 28.792750	-3.752389	-9.426176	 4.682471	-0.380607	 34.721330	-48.808500	 10.319670	-9.592463	-6.580301	 5.266122	 0.000000	 0.000000	 0.000000	 0.000000	 0.000000	 0.000000	 0.000000	 4.795020	 27.116100	 1.713064	-3.641674	-17.215480	 4.907067	 116.287700	-0.440208	-90.569110	-8.776634	 3.885258	 19.674840	-4.938166	 0.117692	-57.199400	-51.874240	-32.585930	-15.965990	 15.208500	 5.323790	 0.000000	 0.000000	 0.000000	 0.000000	 0.000000	 0.000000	 0.000000
 0.436226	 1.273825	 0.406894	 0.691407	-2.428859	-177.242800	-178.977000	 7.097759	-13.069450	 3.577945	-13.219760	 6.021631	 5.592760	 69.963240	-1.734987	 1.292262	 28.425850	-2.713146	 176.722800	 7.583164	 14.698000	-2.005599	-10.319360	 0.826611	 0.360895	 66.036010	-5.717849	-1.288183	 28.361890	 2.710176	-0.997484	 4.983996	-12.580390	 3.576561	-1.714412	-6.164995	-2.259676	 1.820043	 18.274030	-117.545800	-0.806313	 89.946660	 28.682030	-3.761830	-9.307057	 4.733588	-0.337554	 34.273880	-48.194360	 9.848982	-10.193830	-6.580301	 5.266122	 0.000000	 0.000000	 0.000000	 0.000000	 0.000000	 0.000000	 0.000000	 4.855296	 27.305700	 1.663036	-3.640041	-17.381270	 4.906033	 116.424300	-0.477919	-90.556110	-8.671479	 3.801265	 19.500560	-4.963721	 0.179795	-56.813450	-52.204470	-32.623470	-15.680890	 15.208500	 5.323790	 0.000000	 0.000000	 0.000000	 0.000000	 0.000000	 0.000000	 0.000000
 0.436170	 1.273397	 0.419740	 0.868796	-4.549850	-177.022200	-177.472900	 10.394310	-24.094390	 3.875581	-14.274580	 6.605649	 9.730676	 69.714020	-3.947390	 1.292262	 28.425850	-2.713146	 175.707600	 10.299810	 26.024920	-2.056051	-10.573130	 0.083846	-4.464582	 65.639950	-3.284509	-1.288183	 28.361890	 2.710176	-0.090460	 5.193701	-19.632880	 2.915599	-0.534986	-5.473557	-1.480742	 0.518538	 15.913210	-119.814300	-1.490967	 89.624110	 30.553180	-0.448601	-5.022531	 6.378188	 0.603859	 23.306960	-37.104310	 0.438247	-21.360370	-6.580301	 5.266122	 0.000000	 0.000000	 0.000000	 0.000000	 0.000000	 0.000000	 0.000000	 6.546170	 32.253470	 0.233581	-3.729387	-20.437330	 4.745840	 120.003300	-1.453220	-90.184050	-8.998418	 5.111979	 16.353600	-5.998102	 1.738670	-47.887930	-54.157830	-31.226140	-12.237540	 15.208500	 5.323790	 0.000000	 0.000000	 0.000000	 0.000000	 0.000000	 0.000000	 0.000000
 0.436164	 1.273061	 0.422691	 0.894429	-4.938453	-176.981200	-177.267800	 11.091560	-25.319460	 3.975079	-14.625010	 6.723651	 10.572560	 69.746590	-4.418591	 1.292262	 28.425850	-2.713146	 175.544400	 10.935220	 27.305800	-2.113147	-10.859770	-0.056078	-5.329199	 65.721090	-2.822012	-1.288183	 28.361890	 2.710176	 0.092101	 5.342089	-20.870390	 2.742579	-0.338928	-5.322303	-1.333661	 0.615561	 15.431330	-120.235500	-1.616507	 89.561330	 31.266820	 0.517306	-4.220008	 6.701540	 0.746220	 21.405490	-35.432350	-1.206007	-23.281740	-6.580301	 5.266122	 0.000000	 0.000000	 0.000000	 0.000000	 0.000000	 0.000000	 0.000000	 6.886400	 33.167640	-0.059514	-3.753834	-20.943600	 4.707170	 120.668200	-1.631537	-90.108310	-9.303982	 5.724405	 15.909630	-6.209195	 2.015971	-46.434980	-54.001250	-31.082340	-11.663560	 15.208500	 5.323790	 0.000000	 0.000000	 0.000000	 0.000000	 0.000000	 0.000000	 0.000000
 0.436184	 1.272685	 0.425951	 0.919884	-5.362261	-176.936500	-177.082800	 11.851380	-26.335090	 4.079527	-14.991560	 6.851483	 11.473950	 69.768970	-4.929675	 1.292262	 28.425850	-2.713146	 175.386800	 11.635700	 28.384470	-2.175236	-11.170700	-0.206952	-6.238110	 65.807900	-2.320472	-1.288183	 28.361890	 2.710176	 0.300834	 5.518730	-22.190980	 2.552248	-0.120452	-5.149892	-1.175761	 0.774788	 14.892490	-120.695500	-1.753038	 89.491710	 32.131140	 1.563739	-3.389482	 7.060752	 0.890775	 19.369640	-33.662420	-2.925865	-25.263590	-6.580301	 5.266122	 0.000000	 0.000000	 0.000000	 0.000000	 0.000000	 0.000000	 0.000000	 7.268326	 34.163660	-0.390458	-3.782237	-21.486720	 4.662505	 121.394200	-1.825150	-90.023280	-9.729611	 6.404279	 15.449580	-6.444113	 2.315585	-44.907620	-53.671250	-30.937950	-10.913190	 15.208500	 5.323790	 0.000000	 0.000000	 0.000000	 0.000000	 0.000000	 0.000000	 0.000000
 0.436251	 1.272310	 0.429387	 0.942795	-5.814913	-176.888900	-177.045300	 12.668760	-26.247950	 4.177863	-15.335500	 6.984262	 12.187360	 69.736750	-5.381231	 1.292262	 28.425850	-2.713146	 175.324300	 12.401180	 28.377450	-2.235023	-11.469600	-0.364092	-6.940094	 65.839450	-1.852349	-1.288183	 28.361890	 2.710176	 0.496704	 5.740011	-23.556560	 2.433496	 0.087111	-4.958385	-1.051164	 1.008445	 14.304450	-121.185700	-1.897828	 89.416370	 33.200210	 2.678222	-2.572620	 7.451586	 1.032986	 17.244010	-31.889460	-4.658256	-27.219030	-6.580301	 5.266122	 0.000000	 0.000000	 0.000000	 0.000000	 0.000000	 0.000000	 0.000000	 7.687871	 35.222270	-0.756221	-3.814352	-22.055940	 4.612044	 122.167900	-2.030133	-89.930050	-10.315870	 7.174005	 15.000380	-6.706285	 2.631801	-43.342320	-53.097980	-30.777780	-9.981536	 15.208500	 5.323790	 0.000000	 0.000000	 0.000000	 0.000000	 0.000000	 0.000000	 0.000000
 0.436485	 1.271871	 0.434331	 0.965444	-6.509011	-176.818100	-177.023100	 13.840420	-26.105920	 4.285603	-15.710970	 7.174677	 13.245330	 69.609090	-6.023179	 1.292262	 28.425850	-2.713146	 175.237900	 13.513540	 28.356740	-2.302521	-11.806130	-0.594098	-8.000329	 65.823610	-1.162530	-1.288183	 28.361890	 2.710176	 0.884462	 6.045014	-25.558350	 2.118767	 0.333176	-4.654769	-0.807710	 1.498499	 13.384440	-121.931700	-2.116786	 89.299380	 34.844820	 3.981992	-1.464408	 8.049464	 1.227494	 14.089680	-28.985060	-6.837252	-29.769270	-6.580301	 5.266122	 0.000000	 0.000000	 0.000000	 0.000000	 0.000000	 0.000000	 0.000000	 8.352655	 36.827020	-1.340233	-3.866702	-22.905780	 4.529584	 123.345200	-2.339361	-89.782980	-11.398630	 7.998796	 14.340070	-7.106111	 3.107178	-41.072180	-51.950070	-30.379510	-7.980621	 15.208500	 5.323790	 0.000000	 0.000000	 0.000000	 0.000000	 0.000000	 0.000000	 0.000000
 0.436847	 1.271698	 0.438023	 0.969131	-7.103802	-176.759600	-177.048200	 14.733990	-25.974140	 4.322704	-15.839940	 7.320006	 14.094000	 69.409810	-6.499867	 1.292262	 28.425850	-2.713146	 175.177500	 14.381380	 28.328670	-2.328990	-11.938030	-0.777528	-8.878210	 65.735850	-0.614709	-1.288183	 28.361890	 2.710176	 1.230259	 6.314493	-27.164730	 1.882745	 0.357447	-4.391653	-0.626833	 2.076595	 12.586600	-122.561400	-2.300319	 89.198460	 36.162050	 4.542110	-0.632180	 8.558016	 1.372175	 11.496660	-26.194290	-8.063726	-31.495800	-6.580301	 5.266122	 0.000000	 0.000000	 0.000000	 0.000000	 0.000000	 0.000000	 0.000000	 8.940401	 38.175450	-1.860760	-3.914111	-23.610060	 4.454311	 124.339000	-2.597793	-89.653970	-12.470930	 8.201662	 13.803980	-7.446057	 3.503936	-39.250910	-50.787560	-29.772600	-5.640700	 15.208500	 5.323790	 0.000000	 0.000000	 0.000000	 0.000000	 0.000000	 0.000000	 0.000000
